<?xml version="1.0" encoding="UTF-8" standalone="no"?>
<svg
   xmlns:dc="http://purl.org/dc/elements/1.1/"
   xmlns:cc="http://creativecommons.org/ns#"
   xmlns:rdf="http://www.w3.org/1999/02/22-rdf-syntax-ns#"
   xmlns:svg="http://www.w3.org/2000/svg"
   xmlns="http://www.w3.org/2000/svg"
   xmlns:sodipodi="http://sodipodi.sourceforge.net/DTD/sodipodi-0.dtd"
   xmlns:inkscape="http://www.inkscape.org/namespaces/inkscape"
   width="500mm"
   height="500mm"
   viewBox="0 0 500 500"
   version="1.1"
   id="svg3263"
   inkscape:version="1.0.2-2 (e86c870879, 2021-01-15)"
   sodipodi:docname="gate-asphalt-painted-numbers-6.svg">
  <defs
     id="defs3257" />
  <sodipodi:namedview
     id="base"
     pagecolor="#ffffff"
     bordercolor="#666666"
     borderopacity="1.0"
     inkscape:pageopacity="0.0"
     inkscape:pageshadow="2"
     inkscape:zoom="0.35"
     inkscape:cx="400"
     inkscape:cy="560"
     inkscape:document-units="px"
     inkscape:current-layer="layer1"
     inkscape:document-rotation="0"
     showgrid="false"
     inkscape:window-width="1623"
     inkscape:window-height="1228"
     inkscape:window-x="38"
     inkscape:window-y="816"
     inkscape:window-maximized="0" />
  <metadata
     id="metadata3260">
    <rdf:RDF>
      <cc:Work
         rdf:about="">
        <dc:format>image/svg+xml</dc:format>
        <dc:type
           rdf:resource="http://purl.org/dc/dcmitype/StillImage" />
        <dc:title></dc:title>
      </cc:Work>
    </rdf:RDF>
  </metadata>
  <g
     inkscape:label="Lag 1"
     inkscape:groupmode="layer"
     id="layer1">
    <ellipse
       style="fill:none;fill-opacity:1;stroke:#dfd8ae;stroke-width:15.8132;stroke-miterlimit:4;stroke-dasharray:none;stroke-opacity:1"
       id="path36-6-0"
       cx="-249.46429"
       cy="246.15479"
       rx="238.94804"
       ry="235.85858"
       transform="scale(-1,1)" />
    <path
       id="path3252"
       style="fill:#dfd8ae;fill-opacity:1;stroke:none;stroke-width:4.89344px;stroke-linecap:butt;stroke-linejoin:miter;stroke-opacity:1"
       d="m 220.3385,57.042589 c 7.4148,0.152028 14.2152,1.19723 16.76398,1.892394 6.79669,1.853638 101.95228,213.173207 111.22064,247.157207 11.1221,71.05747 -15.47599,105.26163 -43.86901,124.19032 -38.92717,25.9514 -109.0399,27.71863 -152.00265,-11.73665 -30.27655,-27.80508 -50.04335,-71.6782 -39.53935,-132.84939 10.50418,-61.17117 85.88057,-78.4667 122.33625,-76.61301 21.38808,1.08749 29.22973,4.49236 32.18005,7.13944 C 262.11445,206.39235 196.86736,85.456969 195.0876,69.438661 193.92981,59.01176 207.98076,56.789159 220.3385,57.042589 Z m 14.89063,198.385221 a 73.837946,73.837946 0 0 0 -0.89885,0 73.837946,73.837946 0 0 0 -73.84149,73.83175 73.837946,73.837946 0 0 0 73.84149,73.84137 73.837946,73.837946 0 0 0 73.83168,-73.84137 73.837946,73.837946 0 0 0 -72.93338,-73.83175 z" />
  </g>
</svg>
